<svg xmlns="http://www.w3.org/2000/svg" viewBox="0 0 21.39 21.39"><defs><style>.cls-1{fill:#fff;}</style></defs><title>Middel 6</title><g id="Laag_2" data-name="Laag 2"><g id="Laag_1-2" data-name="Laag 1"><path class="cls-1" d="M10.69,0A10.69,10.69,0,1,0,21.39,10.69,10.71,10.71,0,0,0,10.69,0Zm0,19.89a9.19,9.19,0,1,1,9.19-9.19A9.2,9.2,0,0,1,10.69,19.89Z"/><path class="cls-1" d="M15,10.19H11.19V6.44a.5.5,0,1,0-1,0v3.76H6.44a.5.5,0,1,0,0,1h3.76V15a.5.5,0,0,0,1,0V11.19H15a.5.5,0,0,0,0-1Z"/></g></g></svg>