<svg xmlns="http://www.w3.org/2000/svg" viewBox="0 0 21.39 21.39"><defs><style>.cls-1{fill:#fff;}</style></defs><title>Middel 4</title><g id="Laag_2" data-name="Laag 2"><g id="Laag_1-2" data-name="Laag 1"><path class="cls-1" d="M10.69,0A10.69,10.69,0,1,0,21.39,10.69,10.71,10.71,0,0,0,10.69,0Zm0,19.89a9.19,9.19,0,1,1,9.19-9.19A9.2,9.2,0,0,1,10.69,19.89Z"/><path class="cls-1" d="M10.69,6.21c-3.57,0-6.37,1.71-6.37,3.89S7.12,14,10.69,14a10.42,10.42,0,0,0,1.36-.09l1.51,1.17a.5.5,0,0,0,.81-.4V13.29c1.69-.72,2.69-1.9,2.69-3.19C17.06,7.92,14.26,6.21,10.69,6.21Zm3,6.27a.5.5,0,0,0-.32.47v.71L12.5,13a.5.5,0,0,0-.31-.1h-.08c-3.49.53-6.79-1-6.79-2.78,0-1.57,2.46-2.89,5.37-2.89s5.37,1.32,5.37,2.89C16.06,11,15.15,11.94,13.7,12.48Z"/></g></g></svg>