<svg xmlns="http://www.w3.org/2000/svg" viewBox="0 0 21.39 21.39"><defs><style>.cls-1{fill:#fff;}</style></defs><title>Middel 8</title><g id="Laag_2" data-name="Laag 2"><g id="Laag_1-2" data-name="Laag 1"><rect class="cls-1" x="9.71" y="8.88" width="1.96" height="6.57"/><path class="cls-1" d="M11.52,6.27A1.18,1.18,0,0,0,11.14,6a1.23,1.23,0,0,0-.47-.09,1.14,1.14,0,0,0-.45.09,1.18,1.18,0,0,0-.37.25,1.16,1.16,0,0,0-.25.37,1.09,1.09,0,0,0-.09.45,1.06,1.06,0,0,0,.09.44,1.14,1.14,0,0,0,.25.36,1.24,1.24,0,0,0,.37.25,1.09,1.09,0,0,0,.45.09,1.17,1.17,0,0,0,.47-.09,1.24,1.24,0,0,0,.38-.25,1.15,1.15,0,0,0,.26-.36,1,1,0,0,0,.1-.44,1.07,1.07,0,0,0-.1-.45A1.18,1.18,0,0,0,11.52,6.27Z"/><path class="cls-1" d="M10.69,0A10.69,10.69,0,1,0,21.39,10.69,10.71,10.71,0,0,0,10.69,0Zm0,19.89a9.19,9.19,0,1,1,9.19-9.19A9.2,9.2,0,0,1,10.69,19.89Z"/></g></g></svg>