<svg xmlns="http://www.w3.org/2000/svg" viewBox="0 0 21.39 21.39"><defs><style>.cls-1{fill:#fff;}</style></defs><title>Middel 5</title><g id="Laag_2" data-name="Laag 2"><g id="Laag_1-2" data-name="Laag 1"><path class="cls-1" d="M10.69,0A10.69,10.69,0,1,0,21.39,10.69,10.71,10.71,0,0,0,10.69,0Zm0,19.89a9.19,9.19,0,1,1,9.19-9.19A9.2,9.2,0,0,1,10.69,19.89Z"/><path class="cls-1" d="M15.12,4.54H6.93a.5.5,0,0,0-.5.5v11.3a.5.5,0,0,0,.5.5H13a.5.5,0,0,0,.35-.15l2.07-2.07a.49.49,0,0,0,.12-.23v-.06a.48.48,0,0,0,0-.06V5A.5.5,0,0,0,15.12,4.54Zm-.5,9.22H13a.5.5,0,0,0-.5.5v1.57H7.43V5.54h7.19Z"/><path class="cls-1" d="M8.47,8.22h5.12a.5.5,0,0,0,0-1H8.47a.5.5,0,0,0,0,1Z"/><path class="cls-1" d="M8.47,9.89h5.12a.5.5,0,0,0,0-1H8.47a.5.5,0,0,0,0,1Z"/><path class="cls-1" d="M8.47,11.55h5.12a.5.5,0,1,0,0-1H8.47a.5.5,0,0,0,0,1Z"/></g></g></svg>