<svg xmlns="http://www.w3.org/2000/svg" viewBox="0 0 21.39 21.39"><defs><style>.cls-1{fill:#fff;}</style></defs><title>Middel 3</title><g id="Laag_2" data-name="Laag 2"><g id="Laag_1-2" data-name="Laag 1"><path class="cls-1" d="M10.69,0A10.69,10.69,0,1,0,21.39,10.69,10.71,10.71,0,0,0,10.69,0Zm0,19.89a9.19,9.19,0,1,1,9.19-9.19A9.2,9.2,0,0,1,10.69,19.89Z"/><path class="cls-1" d="M11,4.27a.5.5,0,0,0-.71,0L4.9,9.71a.5.5,0,0,0,.35.85H6.85v4.95a.5.5,0,0,0,.5.5h3.35a.5.5,0,0,0,0-1H7.85V10.06a.5.5,0,0,0-.5-.5H6.46l4.23-4.23,4.23,4.23H14a.5.5,0,0,0-.5.5v5.45a.5.5,0,0,0,1,0V10.56h1.59a.5.5,0,0,0,.35-.85Z"/></g></g></svg>