<svg xmlns="http://www.w3.org/2000/svg" viewBox="0 0 184.07 45.73"><defs><style>.cls-1{fill:#fff;}</style></defs><title>Middel 2</title><g id="Laag_2" data-name="Laag 2"><g id="Laag_1-2" data-name="Laag 1"><path class="cls-1" d="M19.54,21.62a1.24,1.24,0,0,0-.4.54L12.26,39.34q-.22.58-.41,1.26T11.49,42q-.17-.75-.38-1.43t-.44-1.26L3.77,22.16a1.36,1.36,0,0,0-.41-.56,1.11,1.11,0,0,0-.72-.22H0L10,45.73h3l10-24.36H20.26A1.1,1.1,0,0,0,19.54,21.62Z"/><path class="cls-1" d="M69.17,21.38l-10,24.36h2.65a1.1,1.1,0,0,0,.73-.25A1.24,1.24,0,0,0,63,45l6.88-17.18q.22-.58.41-1.26t.36-1.43q.17.75.38,1.43t.44,1.26L78.34,45a1.36,1.36,0,0,0,.41.56,1.11,1.11,0,0,0,.72.22h2.65l-10-24.36Z"/><rect class="cls-1" x="29.11" y="21.67" width="3.23" height="23.76"/><polygon class="cls-1" points="39.21 24.38 46.96 24.38 46.96 45.44 50.17 45.44 50.17 24.38 57.9 24.38 57.9 21.68 39.21 21.68 39.21 24.38"/><polygon class="cls-1" points="91.52 21.68 88.31 21.68 88.31 45.44 101.84 45.44 101.84 42.73 91.52 42.73 91.52 21.68"/><path class="cls-1" d="M112.25,0a10.62,10.62,0,1,0,10.66,10.62A10.65,10.65,0,0,0,112.25,0Zm0,19.54A9,9,0,0,1,105.1,16l3.69-3.67,2,2,4.79-4.76v1.52a1,1,0,0,0,2.1,0V7.22a1,1,0,0,0-1-1h-4a1,1,0,1,0,0,2.09h1.64l-3.51,3.5-2-2-4.65,4.63a8.82,8.82,0,0,1-.85-3.77,9,9,0,1,1,9,8.92Z"/><path class="cls-1" d="M136.37,6.18a3.81,3.81,0,0,0-1.31-.85,4.56,4.56,0,0,0-1.69-.3h-3.14v8.36h3.14a4.54,4.54,0,0,0,1.69-.3,3.72,3.72,0,0,0,2.16-2.17,4.66,4.66,0,0,0,.3-1.71,4.66,4.66,0,0,0-.3-1.7A3.79,3.79,0,0,0,136.37,6.18ZM136,10.55a2.83,2.83,0,0,1-.58,1,2.47,2.47,0,0,1-.91.63,3.15,3.15,0,0,1-1.19.21h-1.9V6h1.9a3.15,3.15,0,0,1,1.19.22,2.47,2.47,0,0,1,.91.63,2.84,2.84,0,0,1,.58,1,4.08,4.08,0,0,1,.2,1.34A4.07,4.07,0,0,1,136,10.55Z"/><path class="cls-1" d="M142.44,8a1.84,1.84,0,0,0-.66-.46,2.27,2.27,0,0,0-.9-.17,3.25,3.25,0,0,0-2.35.94l.2.37a.54.54,0,0,0,.14.15.33.33,0,0,0,.2.06.49.49,0,0,0,.28-.09l.32-.21a2.43,2.43,0,0,1,.44-.21,1.83,1.83,0,0,1,.63-.09,1,1,0,0,1,.84.33,1.5,1.5,0,0,1,.29,1V10a8.39,8.39,0,0,0-1.7.19,4,4,0,0,0-1.12.42,1.7,1.7,0,0,0-.62.58,1.31,1.31,0,0,0-.19.67,1.7,1.7,0,0,0,.13.69,1.39,1.39,0,0,0,.36.5,1.46,1.46,0,0,0,.53.29,2.16,2.16,0,0,0,.65.1,2.9,2.9,0,0,0,.61-.06,2.35,2.35,0,0,0,.52-.17,2.83,2.83,0,0,0,.46-.27,4.91,4.91,0,0,0,.45-.37l.12.52a.38.38,0,0,0,.14.21.48.48,0,0,0,.26.06H143V9.62a2.91,2.91,0,0,0-.14-.91A2,2,0,0,0,142.44,8Zm-.57,3.93a3.35,3.35,0,0,1-.34.32,2.06,2.06,0,0,1-.37.24,1.92,1.92,0,0,1-.41.15,2.07,2.07,0,0,1-.48.05,1.38,1.38,0,0,1-.37,0,.78.78,0,0,1-.29-.15.71.71,0,0,1-.2-.26.91.91,0,0,1-.07-.38.72.72,0,0,1,.13-.42,1.07,1.07,0,0,1,.44-.33,3.24,3.24,0,0,1,.79-.22,8.74,8.74,0,0,1,1.18-.11Z"/><path class="cls-1" d="M147.86,10.52a2,2,0,0,0-.48-.3l-.55-.21-.55-.18a3.3,3.3,0,0,1-.48-.19,1.11,1.11,0,0,1-.34-.25.53.53,0,0,1-.13-.37.69.69,0,0,1,.08-.32.75.75,0,0,1,.22-.26,1.06,1.06,0,0,1,.34-.17,1.52,1.52,0,0,1,.45-.06,1.8,1.8,0,0,1,.51.06,2.63,2.63,0,0,1,.38.14l.27.14a.43.43,0,0,0,.21.06.26.26,0,0,0,.13,0,.33.33,0,0,0,.1-.11l.25-.41a2.43,2.43,0,0,0-.81-.51,2.89,2.89,0,0,0-1.06-.19,2.7,2.7,0,0,0-.91.14,2,2,0,0,0-.67.38,1.63,1.63,0,0,0-.41.55,1.57,1.57,0,0,0-.14.66,1.47,1.47,0,0,0,.13.65,1.43,1.43,0,0,0,.34.45,1.93,1.93,0,0,0,.49.31,5.63,5.63,0,0,0,.56.21l.56.18a2.76,2.76,0,0,1,.49.19,1.13,1.13,0,0,1,.34.26.58.58,0,0,1,.13.39.86.86,0,0,1-.07.34.8.8,0,0,1-.21.29,1,1,0,0,1-.36.2,1.59,1.59,0,0,1-.51.07,1.85,1.85,0,0,1-.58-.08,2.09,2.09,0,0,1-.4-.17l-.28-.18a.4.4,0,0,0-.23-.08.35.35,0,0,0-.19,0,.34.34,0,0,0-.12.13l-.27.44a2.82,2.82,0,0,0,.87.52,3.05,3.05,0,0,0,1.13.2,3,3,0,0,0,1-.15,2.06,2.06,0,0,0,.71-.4,1.67,1.67,0,0,0,.44-.61,2,2,0,0,0,.15-.77,1.3,1.3,0,0,0-.13-.61A1.39,1.39,0,0,0,147.86,10.52Z"/><path class="cls-1" d="M154,8a1.7,1.7,0,0,0-.62-.46,2.1,2.1,0,0,0-.86-.16,2.23,2.23,0,0,0-1,.23,3.22,3.22,0,0,0-.82.61V4.8h-1.14v8.59h1.14V9.05a2.72,2.72,0,0,1,.71-.56,1.69,1.69,0,0,1,.82-.21,1.09,1.09,0,0,1,.89.35,1.51,1.51,0,0,1,.29,1v3.77h1.14V9.62a3.07,3.07,0,0,0-.13-.91A2,2,0,0,0,154,8Z"/><path class="cls-1" d="M160.75,8.16a2,2,0,0,0-.71-.58,2.12,2.12,0,0,0-.93-.2,2.2,2.2,0,0,0-1.06.25,3.06,3.06,0,0,0-.83.66V4.8h-1.14v8.59h.73a.27.27,0,0,0,.29-.24l.05-.49a2.7,2.7,0,0,0,.32.34,1.78,1.78,0,0,0,.37.26,1.85,1.85,0,0,0,.44.16,2.33,2.33,0,0,0,.52.05,2.38,2.38,0,0,0,1.06-.23,2.27,2.27,0,0,0,.8-.65,3,3,0,0,0,.51-1,4.5,4.5,0,0,0,.18-1.3,4.28,4.28,0,0,0-.16-1.21A2.71,2.71,0,0,0,160.75,8.16Zm-1,3.87a1.44,1.44,0,0,1-1.22.56,1.72,1.72,0,0,1-.71-.15,1.6,1.6,0,0,1-.61-.51V9.13a2.49,2.49,0,0,1,.67-.63,1.57,1.57,0,0,1,.85-.22,1.27,1.27,0,0,1,1.07.49,2.54,2.54,0,0,1,.38,1.55A2.81,2.81,0,0,1,159.75,12Z"/><path class="cls-1" d="M167.22,8.2a2.46,2.46,0,0,0-.9-.61,3.39,3.39,0,0,0-2.36,0,2.48,2.48,0,0,0-.9.61,2.73,2.73,0,0,0-.57,1,3.72,3.72,0,0,0-.2,1.26,3.75,3.75,0,0,0,.2,1.26,2.7,2.7,0,0,0,.57,1,2.5,2.5,0,0,0,.9.61,3.4,3.4,0,0,0,2.36,0,2.48,2.48,0,0,0,.9-.61,2.69,2.69,0,0,0,.57-1,3.8,3.8,0,0,0,.2-1.26,3.77,3.77,0,0,0-.2-1.26A2.72,2.72,0,0,0,167.22,8.2ZM166.39,12a1.45,1.45,0,0,1-1.25.57,1.47,1.47,0,0,1-1.27-.57,2.63,2.63,0,0,1-.42-1.59,2.65,2.65,0,0,1,.42-1.59,1.47,1.47,0,0,1,1.27-.57,1.44,1.44,0,0,1,1.25.57,2.66,2.66,0,0,1,.41,1.59A2.65,2.65,0,0,1,166.39,12Z"/><path class="cls-1" d="M173,8a1.84,1.84,0,0,0-.66-.46,2.27,2.27,0,0,0-.9-.17,3.25,3.25,0,0,0-2.35.94l.2.37a.54.54,0,0,0,.14.15.33.33,0,0,0,.2.06.49.49,0,0,0,.28-.09l.32-.21a2.43,2.43,0,0,1,.44-.21,1.83,1.83,0,0,1,.63-.09,1,1,0,0,1,.84.33,1.5,1.5,0,0,1,.29,1V10a8.39,8.39,0,0,0-1.7.19,4,4,0,0,0-1.12.42,1.7,1.7,0,0,0-.62.58,1.31,1.31,0,0,0-.19.67,1.7,1.7,0,0,0,.13.69,1.39,1.39,0,0,0,.36.5,1.47,1.47,0,0,0,.53.29,2.16,2.16,0,0,0,.65.1,2.9,2.9,0,0,0,.61-.06,2.35,2.35,0,0,0,.52-.17,2.83,2.83,0,0,0,.46-.27,4.91,4.91,0,0,0,.45-.37l.12.52a.38.38,0,0,0,.14.21.48.48,0,0,0,.26.06h.51V9.62a2.91,2.91,0,0,0-.14-.91A2,2,0,0,0,173,8Zm-.57,3.93a3.36,3.36,0,0,1-.34.32,2.06,2.06,0,0,1-.37.24,1.92,1.92,0,0,1-.41.15,2.07,2.07,0,0,1-.48.05,1.38,1.38,0,0,1-.37,0,.78.78,0,0,1-.29-.15.71.71,0,0,1-.2-.26.91.91,0,0,1-.07-.38.72.72,0,0,1,.13-.42,1.07,1.07,0,0,1,.44-.33,3.24,3.24,0,0,1,.79-.22,8.74,8.74,0,0,1,1.18-.11Z"/><path class="cls-1" d="M177.78,7.36a1.47,1.47,0,0,0-1,.33,2.71,2.71,0,0,0-.69.91l-.07-.83a.44.44,0,0,0-.1-.24.36.36,0,0,0-.25-.07h-.65v5.91h1.14V9.69a3.74,3.74,0,0,1,.24-.51,1.58,1.58,0,0,1,.29-.38,1.12,1.12,0,0,1,.38-.23,1.36,1.36,0,0,1,.48-.08,1.8,1.8,0,0,1,.35,0l.24,0a.18.18,0,0,0,.19-.16l.08-.86a1,1,0,0,0-.3-.13A1.45,1.45,0,0,0,177.78,7.36Z"/><path class="cls-1" d="M182.93,4.8V8a2,2,0,0,0-1.58-.67,2.35,2.35,0,0,0-1.07.24,2.39,2.39,0,0,0-.8.65,2.93,2.93,0,0,0-.51,1,4.12,4.12,0,0,0-.17,1.22,4.87,4.87,0,0,0,.16,1.3,2.77,2.77,0,0,0,.45.95,1.93,1.93,0,0,0,.7.58,2.08,2.08,0,0,0,.92.2,2.22,2.22,0,0,0,1.11-.27,3.14,3.14,0,0,0,.86-.72l.1.68a.28.28,0,0,0,.3.23h.69V4.8Zm0,6.91a2.58,2.58,0,0,1-.68.62,1.6,1.6,0,0,1-.86.22,1.47,1.47,0,0,1-.61-.12,1.11,1.11,0,0,1-.45-.37,1.83,1.83,0,0,1-.28-.65,4.16,4.16,0,0,1-.1-1,2.67,2.67,0,0,1,.43-1.64,1.43,1.43,0,0,1,1.21-.56,1.75,1.75,0,0,1,.72.15,1.61,1.61,0,0,1,.6.51Z"/></g></g></svg>